<svg xmlns="http://www.w3.org/2000/svg" viewBox="0 0 120 120" role="img" aria-label="小鸟">
  <rect width="120" height="120" rx="18" fill="#edf8ed"/>
  <path d="M31 70c1-27 20-43 43-37 16 4 27 19 26 37-1 22-17 35-36 35-20 0-34-13-33-35z" fill="#2f8f5b"/>
  <path d="M41 75c13-3 23-11 29-25 10 8 15 19 15 32-7 10-18 16-31 16-8 0-14-2-19-6 0-7 2-12 6-17z" fill="#86c56b"/>
  <circle cx="74" cy="53" r="5" fill="#17202a"/>
  <path d="M91 59l16 7-16 8z" fill="#df8e2f"/>
  <path d="M54 101l-5 10M65 101l4 10" stroke="#8b5a32" stroke-width="5" stroke-linecap="round"/>
</svg>
