<svg xmlns="http://www.w3.org/2000/svg" viewBox="0 0 120 120" role="img" aria-label="小狗">
  <rect width="120" height="120" rx="18" fill="#fff4e2"/>
  <path d="M31 48c-10-8-15-4-18 6-3 12 2 27 11 31 7 3 14-1 17-10z" fill="#8b5a32"/>
  <path d="M89 48c10-8 15-4 18 6 3 12-2 27-11 31-7 3-14-1-17-10z" fill="#8b5a32"/>
  <path d="M25 65c0-24 16-40 35-40s35 16 35 40c0 23-14 38-35 38S25 88 25 65z" fill="#d99b29"/>
  <circle cx="47" cy="61" r="5" fill="#17202a"/>
  <circle cx="73" cy="61" r="5" fill="#17202a"/>
  <path d="M54 75c4 4 8 4 12 0" fill="none" stroke="#17202a" stroke-width="5" stroke-linecap="round"/>
  <path d="M56 69h8l-4 7z" fill="#17202a"/>
</svg>
