<svg xmlns="http://www.w3.org/2000/svg" viewBox="0 0 120 120" role="img" aria-label="狮子">
  <rect width="120" height="120" rx="18" fill="#fff7dd"/>
  <path d="M60 15l10 11 14-4 4 14 14 5-6 14 9 12-12 9 1 15-15 2-8 13-11-9-12 9-8-13-15-2 1-15-12-9 9-12-6-14 14-5 4-14 14 4z" fill="#9b612b"/>
  <circle cx="60" cy="65" r="31" fill="#d99b29"/>
  <circle cx="48" cy="61" r="5" fill="#17202a"/>
  <circle cx="72" cy="61" r="5" fill="#17202a"/>
  <path d="M55 74h10l-5 7z" fill="#17202a"/>
  <path d="M50 86c7 5 13 5 20 0" fill="none" stroke="#17202a" stroke-width="5" stroke-linecap="round"/>
</svg>
